<?xml version="1.0" standalone="no"?>
<!DOCTYPE svg PUBLIC "-//W3C//DTD SVG 20010904//EN"
 "http://www.w3.org/TR/2001/REC-SVG-20010904/DTD/svg10.dtd">
<svg version="1.0" xmlns="http://www.w3.org/2000/svg"
 width="1354.000000pt" height="361.000000pt" viewBox="0 0 1354.000000 361.000000"
 preserveAspectRatio="xMidYMid meet">

<g transform="translate(0.000000,361.000000) scale(0.100000,-0.100000)"
fill="#000000" stroke="none">
<path d="M2533 3155 c-72 -44 -100 -132 -68 -213 l16 -39 -143 -306 -143 -307
-36 0 c-20 0 -54 -6 -76 -14 l-40 -14 -384 172 -384 172 -6 50 c-16 132 -111
215 -244 215 -105 0 -178 -45 -221 -136 -30 -63 -32 -152 -5 -210 25 -55 99
-121 152 -135 73 -20 152 -9 204 28 25 18 49 32 54 32 8 0 702 -308 709 -315
2 -2 -1 -28 -7 -59 -8 -43 -7 -68 5 -113 l15 -57 -197 -197 -197 -197 -51 27
c-46 23 -62 26 -156 26 -98 0 -109 -2 -165 -32 -60 -32 -104 -68 -143 -118
l-21 -27 -281 128 c-252 115 -280 129 -280 151 0 35 -27 94 -58 127 -64 68
-162 84 -249 41 -72 -36 -106 -90 -111 -175 -4 -82 23 -141 86 -185 39 -27 51
-30 120 -30 65 0 82 4 110 24 l33 23 137 -62 c75 -35 206 -94 290 -132 l152
-70 0 -62 c0 -68 29 -149 72 -207 l26 -34 -143 -210 c-135 -198 -145 -210
-180 -218 -82 -17 -145 -88 -145 -164 0 -50 41 -114 90 -140 54 -29 94 -29
150 -1 65 33 93 85 86 161 l-6 59 130 191 c72 106 136 199 143 208 11 15 19
15 77 3 105 -23 219 2 311 67 l26 18 161 -115 161 -115 -1 -75 c0 -82 20 -134
73 -190 120 -125 339 -93 420 61 23 43 28 47 99 69 41 13 218 67 392 121 l318
98 43 -46 c90 -97 246 -131 361 -79 58 26 28 45 241 -152 146 -137 150 -141
157 -189 12 -94 90 -160 189 -160 113 0 185 80 177 198 -5 76 -38 127 -102
156 -48 22 -83 24 -137 8 l-38 -12 -83 76 c-46 41 -118 108 -161 149 l-79 73
18 40 c23 55 23 165 -1 235 -23 69 -100 149 -168 175 l-47 18 2 439 3 439 26
16 c25 15 31 12 360 -182 l334 -198 280 -392 c264 -371 280 -396 285 -445 5
-44 12 -58 43 -86 32 -29 44 -34 88 -34 45 0 55 4 84 33 39 39 50 72 41 122
-8 41 -55 91 -93 100 -23 5 -78 76 -295 380 l-266 373 239 204 c148 125 246
202 257 200 9 -2 42 -6 72 -8 68 -6 128 21 174 79 27 34 31 48 34 110 3 87
-19 134 -86 182 -38 26 -52 30 -112 30 -60 0 -74 -4 -112 -30 -59 -42 -90
-100 -90 -173 l0 -57 -229 -195 c-126 -107 -240 -201 -252 -209 -21 -13 -43
-2 -334 169 l-311 183 -6 56 c-12 101 -76 178 -168 203 -46 12 -82 8 -163 -16
-15 -4 -84 46 -300 217 l-280 224 -10 51 c-25 129 -154 191 -262 127z m456
-537 l281 -223 0 -45 c0 -99 40 -174 111 -210 l39 -20 0 -439 0 -439 -26 -6
c-16 -4 -32 -2 -42 6 -9 7 -219 188 -467 401 -440 380 -450 390 -456 431 -8
50 -31 97 -61 126 -17 16 -19 24 -11 42 97 212 268 576 275 585 10 12 45 22
64 17 7 -1 138 -103 293 -226z m-2004 7 c0 -102 -3 -185 -8 -185 -18 0 -64 30
-93 62 -79 84 -66 210 29 279 72 52 72 53 72 -156z m1760 -1085 c187 -162 372
-322 411 -356 l71 -63 -28 -57 c-19 -36 -29 -72 -29 -100 0 -23 -4 -45 -9 -48
-15 -10 -719 -226 -733 -225 -7 0 -27 21 -44 47 -17 26 -52 60 -79 77 -41 25
-61 31 -124 33 -65 3 -83 0 -121 -20 l-44 -24 -164 115 c-160 114 -162 116
-155 146 4 17 8 75 8 130 -1 85 -4 107 -24 148 l-24 49 199 199 199 199 45
-16 c78 -27 194 1 250 61 20 21 26 23 39 12 9 -8 169 -146 356 -307z m-2403
211 c27 -28 38 -50 39 -73 1 -18 2 -41 3 -51 1 -17 138 -84 551 -271 43 -19
51 -27 51 -50 0 -14 -3 -26 -6 -26 -4 0 -132 57 -286 126 -362 163 -325 152
-370 117 -31 -23 -47 -28 -95 -28 -89 0 -148 54 -156 142 -13 148 166 225 269
114z m643 -1068 c-2 -42 -11 -62 -79 -161 -63 -93 -75 -116 -66 -132 5 -10 10
-37 10 -60 0 -61 -41 -100 -105 -100 -38 0 -52 5 -76 29 -24 24 -29 38 -29 76
0 65 39 105 102 105 l43 0 100 145 c54 80 100 145 100 145 1 0 1 -21 0 -47z"/>
<path d="M10838 2184 c-58 -31 -74 -107 -35 -165 44 -65 139 -73 203 -17 60
53 55 140 -10 179 -38 23 -119 25 -158 3z"/>
<path d="M6440 1625 l0 -515 110 0 110 0 0 515 0 515 -110 0 -110 0 0 -515z"/>
<path d="M6860 1625 l0 -515 105 0 105 0 0 42 0 41 23 -21 c12 -11 45 -31 72
-44 70 -32 205 -32 286 0 254 101 306 483 91 659 -122 99 -315 110 -423 23
l-39 -31 0 181 0 180 -110 0 -110 0 0 -515z m477 54 c34 -13 80 -55 98 -90 21
-40 28 -119 16 -167 -14 -51 -64 -110 -108 -128 -63 -27 -156 -11 -207 34 -73
65 -73 250 0 313 54 46 138 62 201 38z"/>
<path d="M12620 1910 l0 -170 100 0 100 0 0 80 0 80 161 0 c125 0 160 -3 156
-12 -2 -7 -79 -182 -171 -389 -91 -207 -166 -379 -166 -383 0 -4 54 -5 121 -4
l120 3 179 410 c178 406 180 411 180 483 l0 72 -390 0 -390 0 0 -170z"/>
<path d="M10228 1933 l-3 -88 -57 -3 -58 -3 0 -79 0 -79 58 -3 57 -3 5 -205
c4 -168 8 -211 22 -236 51 -93 146 -138 273 -132 67 4 128 21 154 44 3 2 -48
142 -56 153 -1 2 -8 -1 -15 -6 -25 -20 -86 -24 -117 -8 -43 22 -52 67 -49 242
l3 148 93 3 92 3 0 79 0 80 -95 0 -95 0 0 90 0 90 -105 0 -104 0 -3 -87z"/>
<path d="M11250 1930 l0 -90 -55 0 -55 0 0 -80 0 -80 55 0 55 0 0 -178 c0
-216 11 -266 74 -328 54 -55 130 -78 230 -72 70 5 146 32 146 52 0 6 -11 40
-25 77 l-26 66 -41 -14 c-51 -17 -92 -9 -118 24 -18 24 -20 40 -20 199 l0 174
90 0 90 0 0 80 0 80 -90 0 -90 0 0 90 0 90 -110 0 -110 0 0 -90z"/>
<path d="M5750 1856 c-63 -14 -180 -64 -180 -78 0 -5 16 -40 35 -78 l35 -69
47 24 c134 69 291 50 329 -40 27 -65 27 -65 -108 -65 -187 0 -269 -26 -331
-103 -25 -30 -32 -49 -35 -97 -12 -159 110 -261 293 -247 82 6 138 27 178 64
l27 27 0 -42 0 -42 105 0 105 0 0 213 c0 308 -14 377 -92 456 -77 78 -252 111
-408 77z m280 -471 c0 -51 -22 -87 -68 -113 -68 -38 -187 -24 -206 23 -10 27
-7 70 7 87 24 30 53 37 160 38 l107 0 0 -35z"/>
<path d="M8052 1855 c-74 -21 -108 -41 -168 -97 -188 -178 -136 -509 97 -612
165 -72 360 -56 487 40 18 14 32 29 30 34 -2 4 -26 33 -55 64 l-52 57 -57 -32
c-49 -28 -66 -32 -130 -32 -87 0 -156 29 -191 83 -43 62 -51 60 256 60 l279 0
4 30 c8 53 -11 163 -37 217 -34 69 -119 146 -193 173 -74 29 -198 35 -270 15z
m219 -182 c32 -18 78 -84 79 -110 0 -10 -43 -13 -184 -13 l-185 0 9 29 c32
113 170 160 281 94z"/>
<path d="M8930 1855 c-111 -32 -198 -103 -247 -203 -25 -52 -28 -67 -28 -167
0 -101 2 -115 29 -169 72 -147 230 -225 429 -213 95 6 180 38 242 91 l30 25
-61 61 -61 62 -37 -26 c-105 -71 -279 -46 -337 48 -35 58 -43 56 262 56 l281
0 -4 89 c-3 74 -9 99 -36 154 -40 81 -109 145 -189 176 -76 30 -198 37 -273
16z m221 -181 c33 -19 60 -57 74 -101 l6 -23 -186 0 -186 0 7 23 c22 73 66
113 136 125 53 10 106 1 149 -24z"/>
<path d="M9947 1859 c-50 -12 -96 -35 -129 -67 l-28 -26 0 47 0 47 -105 0
-105 0 0 -375 0 -375 110 0 110 0 0 213 c0 204 1 216 23 257 30 57 90 90 164
90 l53 0 0 100 0 100 -27 -1 c-16 -1 -45 -5 -66 -10z"/>
<path d="M12041 1854 c-219 -59 -337 -268 -272 -482 48 -159 179 -256 361
-269 180 -13 338 73 407 222 25 53 28 71 28 160 0 89 -3 107 -29 162 -79 171
-294 261 -495 207z m209 -184 c59 -30 93 -88 98 -167 7 -110 -36 -184 -124
-213 -51 -17 -126 -8 -169 21 -71 48 -104 167 -72 257 15 41 62 91 102 108 45
20 120 17 165 -6z"/>
<path d="M10810 1485 l0 -375 105 0 105 0 0 375 0 375 -105 0 -105 0 0 -375z"/>
</g>
</svg>
